<?xml version="1.0" encoding="UTF-8"?>
<svg id="b" data-name="Layer 2" xmlns="http://www.w3.org/2000/svg" width="551.41" height="57.206" viewBox="0 0 551.41 57.206">
  <g id="c" data-name="Layer 1">
    <g>
      <path d="m356.99,56.571c-.551,0-1.067-.097-1.547-.29s-.894-.463-1.24-.808-.615-.756-.808-1.231c-.194-.475-.29-.993-.29-1.556V5.606c0-.563.096-1.081.29-1.556.193-.474.463-.885.808-1.23s.759-.615,1.24-.809.996-.29,1.547-.29h30.115c4.219,0,7.955.129,11.208.387,3.252.257,6.085.647,8.5,1.169s4.442,1.181,6.083,1.978c1.641.798,2.965,1.729,3.973,2.796,1.008,1.067,1.729,2.274,2.162,3.621.434,1.348.651,2.837.651,4.465v8.79c0,1.195-.097,2.321-.29,3.375-.193,1.055-.513,2.031-.958,2.927-.446.896-1.026,1.708-1.741,2.434-.715.727-1.588,1.36-2.619,1.899-.293.14-.551.325-.774.553-.223.229-.384.475-.483.739-.1.264-.135.537-.106.818s.144.551.343.809l5.08,11.128c.387.504.648,1.029.783,1.573.134.545.161,1.072.079,1.583-.082.51-.264.996-.545,1.459-.281.463-.639.867-1.072,1.213-.434.346-.932.621-1.495.826-.562.205-1.172.308-1.828.308h-16.315c-.679,0-1.327-.099-1.942-.299-.615-.199-1.195-.466-1.741-.799-.545-.334-1.049-.724-1.512-1.169-.463-.445-.877-.908-1.24-1.389l-7.331-12.939c-.164-.176-.331-.326-.501-.449-.17-.122-.372-.184-.607-.184h-.615c-.434,0-.789.137-1.064.413-.275.275-.413.636-.413,1.081v11.849c0,.563-.096,1.081-.29,1.556s-.463.885-.809,1.231c-.346.346-.756.615-1.231.808-.474.193-.993.29-1.555.29h-19.901Zm30.115-31.064c.808,0,1.521-.029,2.136-.088.615-.059,1.128-.173,1.538-.343.41-.17.721-.407.932-.712.211-.305.316-.703.316-1.195v-5.274c0-.492-.106-.893-.316-1.204-.211-.31-.522-.551-.932-.721-.41-.17-.923-.282-1.538-.334-.615-.053-1.328-.079-2.136-.079h-4.061c-.328,0-.633.056-.914.167-.282.111-.522.267-.721.466-.2.2-.354.44-.466.721-.112.282-.167.586-.167.914v5.415c0,.328.055.633.167.914.111.282.266.522.466.721.2.2.44.354.721.466.281.112.586.167.914.167h4.061Zm39.308,31.064c-1.243,0-2.189-.325-2.84-.975-.65-.651-.975-1.597-.975-2.84V5.535c0-1.254.325-2.203.975-2.848.651-.645,1.597-.967,2.84-.967h50.86c1.254,0,2.203.323,2.848.967s.967,1.594.967,2.848v6.206c0,1.243-.322,2.189-.967,2.839-.645.651-1.594.976-2.848.976h-24.718c-.75,0-1.318.193-1.705.58-.387.387-.58.956-.58,1.705v2.567c0,.75.193,1.319.58,1.705.387.387.956.58,1.705.58h23.311c1.255,0,2.204.323,2.849.967.644.645.967,1.594.967,2.848v4.342c0,1.23-.323,2.171-.967,2.822-.645.65-1.594.975-2.849.975h-23.311c-.75,0-1.318.193-1.705.58-.387.387-.58.956-.58,1.705v3.516c0,.75.193,1.319.58,1.705.387.387.956.58,1.705.58h25.421c1.254,0,2.203.323,2.848.967s.967,1.594.967,2.848v6.206c0,1.243-.323,2.189-.967,2.84-.645.65-1.594.975-2.848.975h-51.563ZM516.952,1.72c4.465,0,8.415.141,11.849.422,3.434.282,6.426.701,8.974,1.257,2.549.557,4.694,1.251,6.434,2.083,1.741.832,3.144,1.799,4.211,2.901,1.066,1.102,1.831,2.338,2.294,3.71.463,1.371.695,2.877.695,4.518v25.07c0,1.641-.232,3.147-.695,4.518-.463,1.371-1.228,2.608-2.294,3.71-1.067,1.102-2.47,2.069-4.211,2.901-1.74.832-3.885,1.527-6.434,2.083-2.549.557-5.541.976-8.974,1.257-3.434.282-7.384.422-11.849.422h-29.236c-1.243,0-2.189-.325-2.84-.975-.65-.651-.975-1.597-.975-2.84V5.535c0-1.254.325-2.203.975-2.848.651-.645,1.597-.967,2.84-.967h29.236Zm6.804,16.649c0-.609-.114-1.102-.343-1.477-.229-.375-.607-.659-1.134-.852s-1.228-.323-2.101-.387c-.873-.065-1.949-.097-3.226-.097h-3.006c-.773,0-1.363.2-1.767.597-.405.399-.607.991-.607,1.776v22.432c0,.773.202,1.362.607,1.767s.993.606,1.767.606h3.006c1.277,0,2.352-.032,3.226-.096.873-.065,1.573-.196,2.101-.395.527-.2.905-.484,1.134-.853s.343-.859.343-1.468v-21.553ZM35.636,4.993c0-1.254.325-2.203.975-2.848.651-.645,1.591-.967,2.822-.967h20.041c1.254,0,2.203.323,2.848.967s.967,1.594.967,2.848v36.848c0,1.711-.229,3.282-.686,4.712s-1.193,2.71-2.206,3.841c-1.014,1.131-2.333,2.124-3.956,2.98s-3.607,1.565-5.951,2.127c-2.344.563-5.075.987-8.192,1.274-3.118.287-6.669.431-10.654.431s-7.536-.144-10.654-.431-5.848-.712-8.192-1.274-4.327-1.272-5.951-2.127c-1.624-.855-2.942-1.849-3.956-2.98-1.014-1.131-1.749-2.411-2.206-3.841s-.686-3-.686-4.712v-2.391c0-1.254.325-2.203.976-2.848.65-.645,1.596-.967,2.839-.967h22.028c.598,0,1.049.155,1.354.466.305.31.457.759.457,1.345v2.637c0,.609.099,1.098.299,1.468.199.369.477.653.835.853s.78.331,1.266.395c.486.065,1.017.097,1.591.097s1.105-.032,1.591-.097c.486-.064.908-.196,1.266-.395.357-.2.635-.484.835-.853.199-.369.299-.859.299-1.468V4.993ZM112.39.457c3.434.305,6.429.756,8.984,1.353,2.555.598,4.703,1.33,6.443,2.198,1.741.868,3.144,1.87,4.211,3.006,1.066,1.137,1.831,2.403,2.295,3.797.463,1.395.694,2.913.694,4.554v26.476c0,1.641-.232,3.159-.694,4.553-.463,1.395-1.228,2.661-2.295,3.797-1.067,1.137-2.47,2.139-4.211,3.006-1.74.867-3.888,1.6-6.443,2.198-2.555.597-5.55,1.049-8.984,1.353s-7.377.458-11.831.458-8.416-.153-11.849-.458c-3.435-.305-6.426-.756-8.975-1.353-2.549-.598-4.694-1.33-6.434-2.198s-3.144-1.869-4.211-3.006c-1.067-1.136-1.831-2.402-2.294-3.797-.463-1.394-.694-2.913-.694-4.553V15.365c0-1.641.231-3.159.694-4.554.463-1.394,1.227-2.66,2.294-3.797,1.066-1.136,2.47-2.139,4.211-3.006,1.741-.867,3.885-1.6,6.434-2.198,2.549-.597,5.54-1.049,8.975-1.353,3.434-.305,7.384-.457,11.849-.457s8.397.152,11.831.457Zm-5.045,16.666c0-.609-.114-1.101-.343-1.476-.229-.375-.607-.659-1.134-.853-.527-.193-1.225-.322-2.092-.387-.868-.064-1.94-.096-3.217-.096s-2.353.032-3.226.096c-.873.065-1.573.193-2.101.387-.527.194-.905.478-1.134.853-.229.375-.343.867-.343,1.476v22.96c0,.609.114,1.098.343,1.468s.607.653,1.134.853,1.228.331,2.101.395c.873.065,1.949.097,3.226.097s2.349-.032,3.217-.097c.867-.064,1.565-.196,2.092-.395s.905-.484,1.134-.853.343-.859.343-1.468v-22.96ZM194.42,1.177c1.008,0,1.884.214,2.628.642s1.312.984,1.705,1.67.578,1.453.554,2.303-.293,1.702-.809,2.558l-15.892,31.276c-.293.433-.51.885-.65,1.353-.141.469-.211.961-.211,1.477v9.686c0,.551-.096,1.067-.29,1.547s-.463.894-.809,1.24-.756.615-1.231.808c-.474.193-.993.29-1.555.29h-19.884c-.563,0-1.084-.097-1.565-.29s-.891-.463-1.23-.808c-.34-.346-.607-.759-.8-1.24s-.29-.996-.29-1.547v-9.616c0-.539-.079-1.052-.237-1.539-.159-.486-.396-.952-.712-1.398l-16.42-31.082c-.375-.574-.63-1.158-.765-1.749-.135-.592-.167-1.158-.097-1.697s.237-1.046.501-1.521c.264-.475.609-.888,1.037-1.24.428-.351.926-.627,1.495-.826.568-.199,1.199-.299,1.89-.299h16.754c1.172,0,2.218.285,3.138.853.92.569,1.632,1.375,2.136,2.417l3.956,11.093c.164.328.369.574.615.739s.504.246.774.246.527-.082.773-.246.451-.41.615-.739l4.043-11.111c.504-1.031,1.215-1.831,2.136-2.4.92-.568,1.96-.853,3.12-.853h15.576Zm122.941,48.451l-17.443-44.53c-.376-.777-.77-1.413-1.184-1.929-.414-.509-.866-.91-1.343-1.203-.484-.293-1.006-.497-1.579-.611-.567-.121-1.197-.178-1.884-.178h-23.86c-.643,0-1.248.057-1.808.178-.566.115-1.082.325-1.56.624-.471.299-.917.707-1.337,1.222-.414.516-.808,1.165-1.184,1.948l-14.196,37.043h-17.36c-1.235,0-2.171-.325-2.82-.974-.656-.656-.98-1.591-.98-2.827V4.991c0-1.254-.318-2.203-.968-2.846-.643-.643-1.591-.968-2.846-.968h-20.04c-1.241,0-2.19.325-2.839.968-.649.643-.98,1.591-.98,2.846v47.223c0,1.241.331,2.19.98,2.839.649.649,1.598.974,2.839.974h63.589c.758,0,1.432-.204,2.012-.611.579-.414.993-.974,1.235-1.693l.299-2.495c.235-.547.586-.98,1.057-1.292.471-.306,1.006-.465,1.617-.465h13.591c.624,0,1.171.166,1.655.497.477.325.834.783,1.07,1.369l.178,2.266c.229.751.643,1.343,1.229,1.776.586.433,1.28.649,2.075.649h18.671c.898,0,1.693-.178,2.368-.541.681-.363,1.216-.847,1.591-1.445.382-.598.599-1.28.643-2.05.051-.764-.115-1.553-.49-2.362Zm-32.543-14.565c-.127.185-.293.325-.49.42-.204.102-.433.153-.707.153h-3.444c-.267,0-.509-.057-.719-.166-.21-.115-.382-.261-.503-.439-.121-.185-.191-.395-.21-.624-.019-.236.019-.477.115-.726l1.846-7.735c.14-.35.325-.611.56-.789.236-.178.484-.261.739-.255.261.006.503.096.738.274.236.172.42.446.548.808l1.649,7.766c.096.248.134.484.108.707-.025.223-.102.427-.229.605Z" stroke-width="0"/>
      <path d="m344.421,30.558l7.614,15.096-19.031-5.565-13.595,11.913.494-18.455-14.076-9.512,16.266-3.643,4.732-16.392,11.421,14.393,17.959-2.338-11.785,14.503Z" fill="none" stroke="#000" stroke-linecap="round" stroke-linejoin="round" stroke-width="3.996"/>
    </g>
  </g>
</svg>