<?xml version="1.0" encoding="UTF-8"?>
<svg id="b" data-name="Layer 2" xmlns="http://www.w3.org/2000/svg" width="272.794" height="97.265" viewBox="0 0 272.794 97.265">
  <g id="c" data-name="Layer 1">
    <g>
      <path d="m30.293,4.245c0-1.066.276-1.873.829-2.421.553-.548,1.353-.822,2.398-.822h17.038c1.066,0,1.873.274,2.42.822.548.548.822,1.355.822,2.421v31.324c0,1.455-.194,2.79-.583,4.005s-1.014,2.304-1.876,3.266c-.861.961-1.982,1.806-3.362,2.533-1.38.728-3.067,1.33-5.059,1.808-1.993.478-4.313.839-6.964,1.084s-5.669.367-9.057.367-6.407-.122-9.057-.367-4.971-.605-6.964-1.084c-1.993-.478-3.679-1.08-5.059-1.808-1.38-.727-2.501-1.571-3.362-2.533-.862-.962-1.487-2.05-1.876-3.266s-.583-2.55-.583-4.005v-2.032c0-1.066.276-1.873.829-2.422.553-.548,1.358-.821,2.414-.821h18.725c.508,0,.892.132,1.151.396.258.264.389.645.389,1.143v2.241c0,.519.084.934.253,1.248.169.314.407.555.711.725.303.169.662.282,1.075.336.414.055.864.082,1.353.082s.94-.027,1.353-.082c.413-.055.772-.167,1.076-.336s.54-.411.71-.725c.169-.314.254-.73.254-1.248V4.245ZM95.541.389c2.919.259,5.465.642,7.637,1.151,2.172.508,3.998,1.131,5.477,1.868,1.48.737,2.673,1.589,3.579,2.556s1.557,2.042,1.951,3.228c.393,1.185.59,2.476.59,3.871v22.507c0,1.395-.197,2.685-.59,3.871-.394,1.186-1.044,2.262-1.951,3.228-.907.967-2.1,1.818-3.579,2.556-1.479.737-3.305,1.36-5.477,1.868-2.173.508-4.718.892-7.637,1.151s-6.272.389-10.058.389-7.153-.13-10.073-.389-5.462-.642-7.629-1.151c-2.167-.508-3.99-1.131-5.47-1.868-1.479-.737-2.673-1.589-3.579-2.556-.907-.966-1.556-2.042-1.95-3.228-.393-1.185-.59-2.476-.59-3.871V13.062c0-1.395.197-2.685.59-3.871.394-1.186,1.043-2.262,1.95-3.228s2.101-1.818,3.579-2.556c1.48-.737,3.303-1.36,5.47-1.868,2.167-.508,4.71-.892,7.629-1.151s6.277-.389,10.073-.389,7.139.13,10.058.389Zm-4.289,14.167c0-.518-.096-.936-.291-1.255-.194-.319-.516-.56-.964-.725-.448-.165-1.041-.274-1.779-.329s-1.649-.082-2.735-.082-2,.028-2.741.082c-.743.055-1.338.164-1.786.329-.449.164-.77.406-.964.725-.195.319-.292.737-.292,1.255v19.518c0,.519.097.934.292,1.248.194.314.515.555.964.725.448.169,1.043.282,1.786.336.741.055,1.656.082,2.741.082s1.998-.027,2.735-.082c.737-.055,1.33-.167,1.779-.336s.77-.411.964-.725c.195-.314.291-.73.291-1.248V14.556ZM165.274,1.002c.857,0,1.602.182,2.234.546s1.115.837,1.45,1.419c.334.583.49,1.236.47,1.958s-.249,1.447-.687,2.174l-13.51,26.587c-.249.369-.433.752-.553,1.15-.12.399-.179.817-.179,1.256v8.234c0,.469-.083.907-.247,1.315-.164.409-.394.76-.687,1.053s-.643.523-1.047.687c-.404.165-.844.247-1.322.247h-16.903c-.478,0-.922-.082-1.33-.247-.408-.164-.756-.393-1.046-.687-.289-.293-.516-.645-.68-1.053-.164-.408-.247-.846-.247-1.315v-8.175c0-.458-.067-.895-.201-1.308-.135-.414-.337-.81-.606-1.189l-13.958-26.422c-.319-.488-.535-.984-.65-1.487-.114-.503-.142-.984-.082-1.442.059-.458.201-.889.426-1.293s.518-.755.881-1.053c.364-.299.787-.533,1.27-.703.484-.169,1.019-.254,1.607-.254h14.242c.997,0,1.886.242,2.668.725.782.484,1.387,1.168,1.816,2.055l3.362,9.43c.14.279.315.488.523.628.21.14.428.209.658.209s.448-.069.658-.209c.209-.139.383-.349.522-.628l3.437-9.445c.429-.877,1.034-1.557,1.817-2.04.782-.483,1.666-.725,2.652-.725h13.241Zm104.51,41.185l-14.828-37.851c-.32-.662-.656-1.204-1.009-1.638-.352-.434-.732-.776-1.144-1.025-.407-.249-.852-.423-1.334-.521-.483-.103-1.02-.152-1.611-.152h-20.279c-.548,0-1.058.049-1.54.152-.477.098-.917.277-1.318.531-.407.249-.786.597-1.139,1.036-.352.439-.689.993-1.009,1.66l-12.062,31.489h-14.763c-1.047,0-1.85-.277-2.397-.83-.553-.553-.83-1.35-.83-2.397V4.244c0-1.063-.277-1.871-.824-2.419s-1.356-.824-2.419-.824h-17.041c-1.052,0-1.86.277-2.413.824s-.83,1.356-.83,2.419v40.145c0,1.052.277,1.86.83,2.413.553.548,1.361.824,2.413.824h54.056c.651,0,1.22-.174,1.714-.521.493-.347.841-.824,1.052-1.432l.255-2.126c.201-.466.499-.835.895-1.096.401-.266.857-.396,1.378-.396h11.552c.526,0,.993.136,1.405.418.407.277.711.667.911,1.166l.146,1.925c.201.64.548,1.144,1.047,1.513.499.363,1.085.548,1.763.548h15.875c.765,0,1.437-.152,2.018-.461.575-.309,1.031-.716,1.351-1.226.325-.51.504-1.09.548-1.741.038-.651-.103-1.323-.418-2.012Zm-27.665-12.376c-.109.152-.249.271-.418.358-.168.081-.369.125-.597.125h-2.929c-.233,0-.434-.049-.613-.141-.179-.098-.32-.222-.428-.374-.103-.152-.163-.331-.179-.532-.016-.201.016-.401.098-.613l1.567-6.573c.119-.298.282-.526.483-.673.195-.152.407-.222.624-.217.222.005.428.081.629.233.201.146.352.374.466.683l1.399,6.606c.081.211.114.412.092.597-.022.19-.087.363-.195.521ZM107.522,97.265c-.468,0-.907-.082-1.316-.247-.409-.164-.76-.393-1.053-.687-.294-.293-.523-.642-.687-1.046-.165-.404-.247-.844-.247-1.323v-40.022c0-.478.082-.919.247-1.323.164-.403.393-.752.687-1.046.293-.293.644-.523,1.053-.687.409-.164.847-.246,1.316-.246h25.6c3.587,0,6.762.11,9.528.329,2.765.219,5.172.55,7.225.994,2.052.443,3.775,1.004,5.17,1.681,1.395.678,2.521,1.47,3.378,2.377s1.469,1.933,1.838,3.078c.369,1.146.553,2.411.553,3.796v7.473c0,1.016-.082,1.972-.247,2.869-.164.897-.435,1.727-.814,2.489-.379.762-.873,1.452-1.48,2.07-.608.618-1.351,1.156-2.227,1.614-.25.12-.469.276-.658.471-.19.194-.326.404-.411.628s-.114.456-.09.695c.025.239.122.468.291.687l4.32,9.46c.328.428.55.874.665,1.338.114.463.137.912.067,1.345s-.225.847-.463,1.24c-.239.394-.543.737-.912,1.031s-.792.528-1.27.702c-.479.175-.997.262-1.554.262h-13.869c-.578,0-1.128-.085-1.651-.254-.523-.169-1.016-.396-1.48-.68-.463-.284-.892-.615-1.285-.994-.394-.379-.745-.772-1.054-1.181l-6.232-11c-.14-.149-.282-.276-.426-.381-.144-.105-.317-.157-.516-.157h-.522c-.37,0-.671.117-.905.351s-.352.54-.352.919v10.073c0,.478-.082.919-.246,1.323-.165.404-.394.753-.687,1.046s-.643.523-1.047.687c-.404.165-.844.247-1.323.247h-16.917Zm25.6-26.407c.687,0,1.293-.025,1.817-.075.522-.05.959-.147,1.307-.291s.613-.346.792-.605.269-.598.269-1.016v-4.483c0-.418-.09-.76-.269-1.024-.179-.264-.444-.468-.792-.613-.349-.144-.785-.239-1.307-.284-.523-.044-1.129-.067-1.817-.067h-3.452c-.279,0-.538.048-.776.142-.239.095-.444.227-.613.396s-.301.374-.396.613c-.094.239-.142.498-.142.777v4.603c0,.279.048.538.142.777.095.239.227.444.396.613.169.169.374.301.613.396.238.095.498.142.776.142h3.452Zm33.416,26.407c-1.056,0-1.861-.276-2.414-.829s-.829-1.357-.829-2.414v-40.142c0-1.066.276-1.873.829-2.421.553-.548,1.358-.822,2.414-.822h43.235c1.067,0,1.874.274,2.422.822.548.548.822,1.355.822,2.421v5.275c0,1.056-.274,1.861-.822,2.414s-1.355.829-2.422.829h-21.012c-.638,0-1.121.165-1.45.493-.328.329-.493.812-.493,1.45v2.182c0,.638.164,1.121.493,1.45.329.329.812.493,1.45.493h19.817c1.066,0,1.873.274,2.42.822.548.548.822,1.355.822,2.421v3.692c0,1.046-.274,1.846-.822,2.399s-1.355.829-2.42.829h-19.817c-.638,0-1.121.164-1.45.493-.328.329-.493.812-.493,1.45v2.989c0,.638.164,1.121.493,1.45.329.329.812.493,1.45.493h21.61c1.066,0,1.873.274,2.42.822.548.548.822,1.355.822,2.421v5.276c0,1.056-.274,1.861-.822,2.414s-1.355.829-2.42.829h-43.833Zm76.966-46.628c3.796,0,7.153.119,10.073.359,2.919.239,5.463.595,7.629,1.068,2.167.474,3.99,1.064,5.47,1.771,1.48.708,2.673,1.53,3.579,2.466s1.557,1.988,1.95,3.153c.394,1.166.59,2.446.59,3.84v21.311c0,1.395-.196,2.675-.59,3.841-.393,1.166-1.043,2.217-1.95,3.153s-2.1,1.758-3.579,2.466-3.303,1.298-5.47,1.771c-2.166.474-4.71.829-7.629,1.069-2.919.239-6.276.359-10.073.359h-24.853c-1.056,0-1.861-.276-2.414-.829s-.829-1.357-.829-2.414v-40.142c0-1.066.276-1.873.829-2.421.553-.548,1.358-.822,2.414-.822h24.853Zm5.784,14.153c0-.518-.097-.936-.291-1.255-.195-.319-.516-.56-.964-.725-.448-.164-1.043-.274-1.786-.328-.743-.055-1.657-.083-2.742-.083h-2.555c-.658,0-1.159.169-1.502.508-.344.338-.516.842-.516,1.509v19.069c0,.658.172,1.158.516,1.502.343.344.844.515,1.502.515h2.555c1.086,0,2-.027,2.742-.082.743-.055,1.338-.167,1.786-.336.448-.169.769-.411.964-.725.194-.314.291-.73.291-1.248v-18.322Z" fill="#ad0707" stroke-width="0"/>
      <path d="m96.835,70.757l6.487,12.861-16.213-4.741-11.582,10.15.421-15.723-11.992-8.104,13.858-3.104,4.032-13.965,9.73,12.262,15.301-1.992-10.04,12.356Z" fill="none" stroke="#ad0707" stroke-linecap="round" stroke-linejoin="round" stroke-width="3.405"/>
    </g>
  </g>
</svg>