<?xml version="1.0" encoding="UTF-8"?>
<svg id="b" data-name="Layer 2" xmlns="http://www.w3.org/2000/svg" width="551.41" height="57.2" viewBox="0 0 551.41 57.2">
  <g id="c" data-name="Layer 1">
    <g>
      <path d="m480.82,43.7c-.64-.65-1.59-.97-2.85-.97h-25.42c-.75,0-1.32-.19-1.7-.58-.39-.39-.58-.95-.58-1.71v-3.51c0-.75.19-1.32.58-1.71.38-.38.95-.58,1.7-.58h23.311c1.26,0,2.21-.32,2.85-.97.64-.65.97-1.59.97-2.82v-4.35c0-1.25-.33-2.2-.97-2.84-.64-.65-1.59-.97-2.85-.97h-23.311c-.75,0-1.32-.19-1.7-.58-.39-.39-.58-.96-.58-1.71v-2.56c0-.75.19-1.32.58-1.71.38-.39.95-.58,1.7-.58h24.72c1.25,0,2.2-.32,2.85-.97.64-.66.96-1.6.96-2.84v-6.21c0-1.25-.32-2.2-.96-2.85-.65-.64-1.6-.96-2.85-.96h-50.86c-1.24,0-2.19.32-2.84.96-.65.65-.98,1.6-.98,2.85v47.22c0,1.24.33,2.19.98,2.84.65.65,1.6.98,2.84.98h51.56c1.26,0,2.21-.33,2.85-.98.64-.65.97-1.6.97-2.84v-6.2c0-1.26-.33-2.21-.97-2.85Zm69.89-31.61c-.46-1.37-1.23-2.61-2.29-3.71-1.07-1.1-2.47-2.07-4.21-2.9-1.74-.83-3.89-1.53-6.44-2.09-2.55-.55-5.54-.97-8.97-1.25-3.439-.28-7.39-.42-11.85-.42h-29.24c-1.24,0-2.19.32-2.84.96-.65.65-.97,1.6-.97,2.85v47.22c0,1.24.32,2.19.97,2.84.65.65,1.6.98,2.84.98h29.24c4.46,0,8.41-.14,11.85-.43,3.43-.28,6.42-.7,8.97-1.25,2.55-.56,4.7-1.25,6.44-2.09,1.74-.83,3.14-1.79,4.21-2.9,1.06-1.1,1.83-2.34,2.29-3.71s.7-2.87.7-4.51v-25.07c0-1.64-.24-3.15-.7-4.52Zm-26.96,27.83c0,.61-.11,1.1-.34,1.47-.23.36-.61.65-1.14.85-.52.2-1.22.33-2.1.39-.87.07-1.95.1-3.22.1h-3.01c-.77,0-1.36-.2-1.77-.61-.4-.4-.6-.99-.6-1.76v-22.44c0-.78.2-1.37.6-1.77.41-.4,1-.6,1.77-.6h3.01c1.27,0,2.35.03,3.22.1.88.06,1.58.19,2.1.38.53.2.91.48,1.14.86.23.37.34.87.34,1.47v21.56ZM62.32,2.14c-.65-.64-1.6-.97-2.85-.97h-20.04c-1.23,0-2.17.33-2.82.97-.65.64-.98,1.59-.98,2.85v35.09c0,.61-.1,1.1-.3,1.47s-.48.65-.83.85c-.36.2-.78.33-1.27.39-.49.07-1.02.1-1.59.1s-1.1-.03-1.59-.1c-.49-.06-.91-.19-1.27-.39-.35-.2-.63-.48-.83-.85-.2-.37-.3-.86-.3-1.47v-2.64c0-.58-.15-1.03-.46-1.34-.3-.31-.75-.47-1.35-.47H3.81c-1.24,0-2.19.32-2.84.97-.65.64-.97,1.59-.97,2.85v2.39c0,1.71.22,3.28.68,4.71s1.19,2.71,2.21,3.84c1.01,1.13,2.33,2.12,3.95,2.98,1.63.85,3.61,1.56,5.95,2.13,2.35.56,5.08.98,8.2,1.27,3.11.29,6.67.43,10.65.43s7.54-.14,10.65-.43c3.12-.29,5.85-.71,8.2-1.27,2.34-.57,4.32-1.28,5.95-2.13,1.62-.86,2.94-1.85,3.95-2.98,1.02-1.13,1.75-2.41,2.21-3.84s.69-3,.69-4.71V4.99c0-1.26-.33-2.21-.97-2.85Zm72,8.67c-.47-1.4-1.23-2.66-2.3-3.8-1.06-1.14-2.47-2.14-4.21-3.01-1.74-.86-3.89-1.6-6.44-2.19-2.56-.6-5.55-1.05-8.98-1.36-3.44-.3-7.38-.45-11.83-.45s-8.42.15-11.85.45c-3.44.31-6.43.76-8.98,1.36-2.55.59-4.69,1.33-6.43,2.19-1.74.87-3.15,1.87-4.21,3.01-1.07,1.14-1.84,2.4-2.3,3.8-.46,1.39-.69,2.91-.69,4.55v26.48c0,1.64.23,3.15.69,4.55.46,1.39,1.23,2.66,2.3,3.8,1.06,1.13,2.47,2.14,4.21,3,1.74.87,3.88,1.6,6.43,2.2,2.55.6,5.54,1.05,8.98,1.35,3.43.31,7.38.46,11.85.46s8.39-.15,11.83-.46c3.43-.3,6.42-.75,8.98-1.35,2.55-.6,4.7-1.33,6.44-2.2,1.74-.86,3.15-1.87,4.21-3,1.07-1.14,1.83-2.41,2.3-3.8.46-1.4.69-2.91.69-4.55V15.36c0-1.64-.23-3.16-.69-4.55Zm-26.98,29.27c0,.61-.11,1.1-.34,1.47s-.61.65-1.14.85c-.521.2-1.22.33-2.09.39-.87.07-1.94.1-3.21.1-1.28,0-2.36-.03-3.23-.1-.87-.06-1.57-.19-2.1-.39-.53-.2-.91-.48-1.14-.85-.22-.37-.34-.86-.34-1.47v-22.96c0-.61.12-1.1.34-1.48.23-.37.61-.66,1.14-.85.53-.19,1.23-.32,2.1-.39.87-.06,1.95-.09,3.23-.09,1.27,0,2.34.03,3.21.09.87.07,1.57.2,2.09.39.53.19.91.48,1.14.85.23.38.34.87.34,1.48v22.96ZM198.75,3.48c-.39-.68-.96-1.24-1.71-1.67-.74-.42-1.62-.64-2.62-.64h-15.58c-1.16,0-2.2.29-3.12.86-.92.56-1.63,1.36-2.14,2.4l-4.04,11.11c-.17.32-.37.57-.62.73-.24.17-.5.25-.77.25s-.53-.08-.77-.25c-.25-.16-.45-.41-.62-.73l-3.95-11.1c-.51-1.04-1.22-1.85-2.14-2.41-.92-.57-1.97-.86-3.14-.86h-16.75c-.69,0-1.32.1-1.89.3-.57.2-1.07.48-1.5.83-.42.35-.77.76-1.03,1.24-.271.47-.43.98-.5,1.52-.07.54-.04,1.1.09,1.69.14.6.39,1.18.77,1.75l16.42,31.09c.31.44.55.91.71,1.39.16.49.24,1,.24,1.54v9.62c0,.55.09,1.06.29,1.55.19.48.46.89.8,1.23.34.35.75.62,1.23.81.48.2,1,.29,1.56.29h19.89c.56,0,1.08-.09,1.55-.29.48-.19.89-.46,1.23-.81.35-.34.62-.75.81-1.23.19-.49.29-1,.29-1.55v-9.69c0-.51.07-1.01.21-1.48.14-.46.36-.92.65-1.35l15.89-31.27c.52-.86.79-1.71.81-2.56.03-.85-.16-1.62-.55-2.31Z" fill="#fff" stroke-width="0"/>
      <path d="m419.03,11.67c-.44-1.35-1.16-2.56-2.17-3.63-1-1.06-2.33-1.99-3.97-2.79s-3.67-1.46-6.08-1.98c-2.42-.52-5.25-.91-8.5-1.17s-6.99-.38-11.21-.38h-30.11c-.56,0-1.07.09-1.55.29-.48.19-.9.46-1.24.8-.35.35-.62.76-.81,1.23-.19.48-.29,1-.29,1.56v8.84l-14,1.82-10.71-13.51c-.47-.58-1.22-.86-1.96-.71-.73.14-1.32.68-1.53,1.4l-1.07,3.72-3.33,11.54-14.03,3.14-6.56-16.75c-.37-.77-.77-1.41-1.18-1.92-.41-.51-.87-.92-1.34-1.21-.49-.29-1.01-.49-1.58-.61s-1.2-.18-1.89-.18h-23.86c-.64,0-1.24.06-1.8.18-.57.12-1.09.33-1.56.62-.48.3-.92.71-1.34,1.23-.42.51-.811,1.16-1.19,1.95l-14.19,37.04h-17.36c-1.24,0-2.17-.33-2.82-.98-.66-.65-.979-1.59-.979-2.82V4.99c0-1.26-.32-2.21-.97-2.85-.64-.64-1.59-.97-2.84-.97h-20.04c-1.25,0-2.19.33-2.84.97-.65.64-.98,1.59-.98,2.85v47.22c0,1.24.33,2.19.98,2.84.65.65,1.59.97,2.84.97h63.58c.76,0,1.44-.2,2.021-.61.58-.41.99-.97,1.229-1.69l.3-2.5c.24-.55.59-.98,1.06-1.29.47-.31,1-.47,1.61-.47h13.6c.62,0,1.17.17,1.65.5s.83.78,1.07,1.37l.18,2.27c.23.75.64,1.34,1.23,1.77.58.44,1.28.65,2.07.65h18.67c.9,0,1.7-.18,2.37-.54.68-.36,1.22-.85,1.59-1.44.21-.33.37-.68.47-1.06.2.36.5.65.88.83.28.12.57.19.85.19.48,0,.95-.17,1.32-.5l12.77-11.19,17.98,5.26c.56.16,1.16.07,1.63-.24v5.35c0,.56.1,1.08.29,1.56.19.47.46.88.81,1.23.34.34.76.61,1.24.81.48.19.99.29,1.55.29h19.9c.56,0,1.08-.1,1.55-.29.48-.2.89-.47,1.23-.81.35-.35.62-.76.81-1.23.2-.48.29-1,.29-1.56v-11.85c0-.44.14-.8.42-1.08.27-.27.62-.41,1.06-.41h.61c.24,0,.439.06.61.18.17.12.34.27.5.45l7.33,12.94c.37.48.78.94,1.24,1.39.46.44.97.83,1.51,1.17.55.33,1.13.6,1.74.8.62.2,1.27.3,1.95.3h16.31c.66,0,1.271-.11,1.83-.31.56-.21,1.06-.48,1.49-.83.44-.34.8-.75,1.08-1.21.28-.46.46-.95.54-1.46.03-.2.05-.4.05-.6,0-.32-.04-.65-.13-.98-.13-.55-.39-1.07-.78-1.58l-5.08-11.12c-.2-.26-.31-.53-.34-.81-.03-.28,0-.56.1-.82s.26-.51.49-.74c.22-.23.48-.41.771-.55,1.03-.54,1.9-1.17,2.62-1.9.71-.73,1.29-1.54,1.74-2.44.44-.89.76-1.87.96-2.92.19-1.06.29-2.18.29-3.38v-8.79c0-1.63-.22-3.12-.65-4.46Zm-134.22,23.39c-.12.18-.29.32-.49.42s-.43.15-.7.15h-3.45c-.27,0-.51-.06-.72-.16-.21-.12-.38-.26-.5-.44-.12-.19-.19-.4-.21-.63-.02-.23.02-.47.11-.72l1.85-7.74c.14-.35.33-.61.56-.79.24-.18.48-.26.74-.25.26,0,.5.09.74.27.23.17.42.45.55.81l1.64,7.77c.1.25.14.48.11.7-.02.23-.1.43-.23.61Zm32.65,14.82c-.02-.09-.06-.17-.1-.26l-8.2-20.92,8.71,5.88-.41,15.3Zm17.15-11.4l-1.05-.31c-.66-.2-1.36-.04-1.88.41l-10.16,8.9.38-13.88c.01-.69-.32-1.33-.88-1.71l-10.24-6.92,11.74-2.63c.72-.16,1.29-.7,1.49-1.4l3.65-12.67,9.02,11.36c.43.55,1.12.84,1.82.74l12.99-1.69-8.62,10.61c-.5.61-.59,1.46-.24,2.16l5.54,10.99-13.56-3.96Zm18.49,4.86l-6.32-12.53,6.32-7.78v20.31Zm38.92-20.18c0,.5-.1.89-.31,1.2-.21.3-.52.54-.93.71-.42.17-.93.29-1.54.34-.62.06-1.33.09-2.14.09h-4.06c-.33,0-.63-.05-.91-.17-.29-.11-.53-.26-.73-.46-.19-.2-.35-.44-.46-.72-.11-.28-.17-.59-.17-.92v-5.41c0-.33.06-.63.17-.92.11-.28.27-.52.46-.72.2-.19.44-.35.73-.46.28-.11.58-.17.91-.17h4.06c.81,0,1.52.03,2.14.08.61.05,1.12.16,1.54.33.41.17.72.41.93.73.21.31.31.71.31,1.2v5.27Z" fill="#fff" stroke-width="0"/>
    </g>
  </g>
</svg>