<?xml version="1.0" encoding="UTF-8"?>
<svg id="b" data-name="Layer 2" xmlns="http://www.w3.org/2000/svg" width="272.8" height="97.26" viewBox="0 0 272.8 97.26">
  <g id="c" data-name="Layer 1">
    <g>
      <path d="m272.21,59.45c-.4-1.16-1.05-2.21-1.95-3.15-.91-.94-2.1-1.76-3.58-2.47-1.48-.7-3.31-1.29-5.47-1.77-2.17-.47-4.71-.83-7.63-1.07-1.05-.09-2.16-.16-3.33-.21-2.07-.1-4.32-.14-6.74-.14h-24.86c-1.05,0-1.86.27-2.41.82-.55.54-.83,1.35-.83,2.42v40.14c0,1.06.28,1.86.83,2.41.55.56,1.36.83,2.41.83h24.86c3.79,0,7.15-.12,10.07-.36s5.46-.59,7.63-1.06c2.16-.48,3.99-1.07,5.47-1.78,1.48-.7,2.67-1.52,3.58-2.46.9-.94,1.55-1.99,1.95-3.15.39-1.17.59-2.45.59-3.85v-21.31c0-1.39-.2-2.67-.59-3.84Zm-22.92,23.66c0,.52-.1.93-.29,1.25-.2.31-.52.55-.97.72-.44.17-1.04.28-1.78.34-.75.05-1.66.08-2.74.08h-2.56c-.66,0-1.16-.17-1.5-.51-.35-.35-.52-.85-.52-1.51v-19.07c0-.66.17-1.17.52-1.51.34-.33.84-.5,1.5-.5h2.56c1.08,0,1.99.02,2.74.08.74.05,1.34.16,1.78.33.45.16.77.4.97.72.19.32.29.74.29,1.26v18.32Zm-36.5,3.21c-.54-.54-1.35-.82-2.42-.82h-21.61c-.64,0-1.12-.16-1.45-.49-.33-.33-.49-.81-.49-1.45v-2.99c0-.64.16-1.12.49-1.45.33-.33.81-.49,1.45-.49h19.82c1.07,0,1.87-.28,2.42-.83.55-.56.82-1.36.82-2.4v-3.69c0-1.07-.27-1.88-.82-2.42-.55-.55-1.35-.83-2.42-.83h-19.82c-.64,0-1.12-.16-1.45-.49-.33-.33-.49-.81-.49-1.45v-2.18c0-.64.16-1.12.49-1.45.33-.33.81-.49,1.45-.49h21.01c1.07,0,1.88-.28,2.43-.83.54-.56.82-1.36.82-2.42v-5.27c0-1.07-.28-1.88-.82-2.42-.55-.55-1.36-.82-2.43-.82h-43.23c-1.06,0-1.86.27-2.41.82-.56.54-.83,1.35-.83,2.42v40.14c0,1.06.27,1.86.83,2.41.55.56,1.35.83,2.41.83h43.83c1.07,0,1.88-.27,2.42-.83.55-.55.83-1.35.83-2.41v-5.28c0-1.06-.28-1.87-.83-2.42Zm57-44.14l-14.83-37.85c-.32-.66-.66-1.2-1.01-1.63-.35-.44-.73-.78-1.14-1.03-.41-.25-.86-.42-1.34-.52s-1.02-.15-1.61-.15h-20.28c-.55,0-1.06.05-1.54.15s-.92.28-1.32.53c-.4.25-.78.6-1.14,1.04-.35.44-.68.99-1,1.66l-12.07,31.49h-14.76c-1.05,0-1.85-.28-2.4-.83-.55-.56-.83-1.35-.83-2.4V4.24c0-1.06-.27-1.87-.82-2.42-.55-.55-1.36-.82-2.42-.82h-17.04c-1.05,0-1.86.27-2.41.82-.56.55-.83,1.36-.83,2.42v40.15c0,1.05.27,1.86.83,2.41.55.55,1.36.82,2.41.82h54.06c.65,0,1.22-.17,1.71-.52.49-.34.84-.82,1.05-1.43l.26-2.12c.2-.47.5-.84.89-1.1.4-.27.86-.4,1.38-.4h11.55c.53,0,.99.14,1.41.42.4.28.71.67.91,1.17l.14,1.92c.2.64.55,1.15,1.05,1.52.5.36,1.09.54,1.76.54h15.88c.76,0,1.44-.15,2.02-.46.57-.31,1.03-.71,1.35-1.22.32-.51.5-1.09.54-1.74.04-.65-.1-1.33-.41-2.02Zm-27.67-12.37c-.11.15-.25.27-.42.36-.16.08-.37.12-.59.12h-2.93c-.24,0-.44-.05-.62-.14-.17-.1-.32-.22-.42-.37-.11-.16-.17-.34-.18-.54-.02-.2.01-.4.1-.61l1.56-6.57c.12-.3.28-.53.49-.67.19-.16.4-.23.62-.22.22,0,.43.08.63.23.2.15.35.38.46.68l1.4,6.61c.09.21.12.41.1.6-.03.19-.09.36-.2.52ZM168.96,2.96c-.33-.58-.82-1.05-1.45-1.42-.63-.36-1.38-.54-2.23-.54h-13.25c-.98,0-1.87.24-2.65.72-.78.49-1.39,1.17-1.81,2.04l-3.44,9.45c-.14.28-.32.49-.52.63-.21.14-.43.21-.66.21s-.45-.07-.66-.21c-.21-.14-.38-.35-.52-.63l-3.37-9.43c-.42-.89-1.03-1.57-1.81-2.06-.78-.48-1.67-.72-2.67-.72h-14.24c-.59,0-1.12.08-1.61.25-.48.17-.9.41-1.27.71-.36.29-.65.65-.88,1.05-.22.4-.37.83-.43,1.29s-.03.94.09,1.44c.11.51.33,1,.65,1.49l.15.28,13.8,26.14c.27.38.48.78.61,1.19.14.41.2.85.2,1.31v8.17c0,.47.08.91.25,1.32.16.41.39.76.68,1.05.29.3.64.53,1.04.69.41.16.86.25,1.33.25h16.91c.48,0,.92-.09,1.32-.25s.75-.39,1.05-.69c.29-.29.52-.64.68-1.05.17-.41.25-.85.25-1.32v-8.23c0-.44.06-.86.18-1.26.12-.39.3-.78.55-1.15l13.51-26.58c.44-.73.67-1.46.69-2.18.02-.72-.14-1.37-.47-1.96ZM52.98,1.82c-.55-.55-1.35-.82-2.42-.82h-17.04c-1.04,0-1.84.27-2.4.82-.55.55-.82,1.36-.82,2.42v29.83c0,.52-.09.94-.26,1.25-.17.31-.4.56-.71.72-.3.17-.66.29-1.07.34-.42.06-.87.08-1.36.08s-.94-.02-1.35-.08c-.41-.05-.77-.17-1.08-.34-.3-.16-.54-.41-.71-.72-.17-.31-.25-.73-.25-1.25v-2.24c0-.5-.13-.88-.39-1.14-.26-.27-.64-.4-1.15-.4H3.25c-1.06,0-1.87.27-2.42.82-.55.55-.83,1.36-.83,2.42v2.04c0,1.45.2,2.79.58,4,.39,1.22,1.02,2.31,1.88,3.27.86.96,1.98,1.8,3.36,2.53s3.07,1.33,5.06,1.81c1.99.48,4.32.84,6.97,1.08,2.65.25,5.66.37,9.05.37s6.41-.12,9.06-.37c2.65-.24,4.97-.6,6.96-1.08,2-.48,3.68-1.08,5.06-1.81,1.38-.73,2.5-1.57,3.36-2.53.87-.96,1.49-2.05,1.88-3.27.39-1.21.58-2.55.58-4V4.24c0-1.06-.27-1.87-.82-2.42Z" fill="#fff" stroke-width="0"/>
      <path d="m160.26,59.09c-.37-1.14-.98-2.17-1.83-3.07-.86-.91-1.99-1.7-3.38-2.38-1.4-.68-3.12-1.24-5.17-1.68-2.06-.45-4.46-.78-7.23-1-2.42-.19-5.15-.29-8.2-.31-.44-.01-.88-.01-1.33-.01h-25.6c-.46,0-.9.08-1.31.24-.41.17-.76.4-1.05.69-.3.29-.53.64-.69,1.04-.17.41-.25.85-.25,1.33v3.09l-11.91,1.55-7.9-9.96c.36.01.72.01,1.08.01,3.78,0,7.13-.13,10.05-.39s5.47-.64,7.64-1.15c1.9-.45,3.54-.98,4.91-1.6.19-.09.38-.18.57-.27,1.479-.74,2.67-1.59,3.58-2.55.9-.97,1.55-2.05,1.95-3.23.39-1.19.59-2.48.59-3.87V13.06c0-1.4-.2-2.69-.59-3.87-.05-.15-.1-.3-.16-.44-.41-1.02-1-1.94-1.79-2.79-.91-.97-2.1-1.82-3.58-2.55-1.48-.74-3.311-1.36-5.48-1.87s-4.72-.89-7.64-1.15-6.27-.39-10.05-.39c-3.8,0-7.16.13-10.08.39-2.92.26-5.46.64-7.63,1.15-2.16.51-3.99,1.13-5.47,1.87-1.48.73-2.67,1.58-3.58,2.55-.9.97-1.55,2.04-1.95,3.23-.39,1.18-.59,2.47-.59,3.87v22.51c0,1.39.2,2.68.59,3.87.4,1.18,1.05,2.26,1.95,3.23.91.96,2.1,1.81,3.58,2.55s3.31,1.36,5.47,1.87c2.17.51,4.71.89,7.63,1.15,1.41.13,2.93.22,4.55.28l-3.5,12.13-12.88,2.89c-.66.15-1.17.67-1.3,1.34-.12.67.16,1.35.72,1.73l11.22,7.58-.39,14.79c-.02.67.36,1.3.97,1.58.24.11.48.17.73.17.4,0,.8-.15,1.12-.43l10.88-9.53,15.32,4.48c.47.14.97.06,1.37-.19v8.9c0,.48.08.92.25,1.32.16.41.39.76.69,1.05.29.29.64.52,1.05.69.41.16.85.24,1.31.24h16.92c.48,0,.92-.08,1.32-.24.41-.17.76-.4,1.05-.69.29-.29.52-.64.69-1.05.16-.4.24-.84.24-1.32v-10.07c0-.38.12-.69.35-.92.24-.24.54-.35.91-.35h.52c.2,0,.37.05.52.15.14.11.28.24.42.38l6.24,11c.3.41.66.81,1.05,1.18.39.38.82.71,1.28,1,.47.28.96.51,1.48.68.53.17,1.08.25,1.66.25h13.86c.56,0,1.08-.08,1.56-.26.48-.17.9-.41,1.27-.7.37-.3.67-.64.91-1.03.24-.4.39-.81.46-1.24.07-.44.05-.88-.06-1.35-.12-.46-.34-.91-.67-1.34l-4.32-9.46c-.17-.21-.26-.44-.29-.68-.02-.24.01-.47.09-.7.09-.22.22-.43.41-.63.19-.19.41-.35.66-.47.88-.45,1.62-.99,2.23-1.61.6-.62,1.1-1.31,1.48-2.07.37-.76.65-1.59.81-2.49.16-.9.25-1.85.25-2.87v-7.47c0-1.39-.19-2.65-.56-3.8Zm-80.56-25.02V14.55c0-.51.1-.93.29-1.25.2-.32.52-.56.97-.73.45-.16,1.04-.27,1.78-.32.75-.06,1.66-.09,2.75-.09,1.08,0,1.99.03,2.73.09.74.05,1.33.16,1.78.32.45.17.77.41.96.73.2.32.29.74.29,1.25v19.52c0,.52-.09.94-.29,1.25-.19.31-.51.56-.96.72-.45.17-1.04.29-1.78.34-.74.06-1.65.08-2.73.08-1.09,0-2-.02-2.75-.08-.74-.05-1.33-.17-1.78-.34-.45-.16-.77-.41-.97-.72-.19-.31-.29-.73-.29-1.25Zm7.89,43.17c-.56-.16-1.16-.03-1.6.35l-8.66,7.59.32-11.83c.02-.58-.27-1.13-.75-1.46l-8.72-5.89,10.01-2.25c.6-.13,1.09-.59,1.26-1.18l3.12-10.8,7.67,9.68c.37.47.96.7,1.56.63l11.06-1.44-7.35,9.04c-.42.52-.5,1.24-.19,1.84l4.72,9.36-12.45-3.64Zm11.26-6.27l5.37-6.6v17.25l-5.37-10.65Zm38.46-2.1c0,.42-.09.75-.27,1.01-.18.26-.44.46-.79.61-.35.14-.79.24-1.31.29s-1.13.08-1.82.08h-3.45c-.28,0-.54-.05-.78-.15-.229-.09-.44-.22-.61-.39-.17-.17-.3-.38-.39-.62-.1-.23-.15-.49-.15-.77v-4.61c0-.27.05-.53.15-.77.09-.24.22-.45.39-.62.17-.17.38-.3.61-.39.24-.1.5-.14.78-.14h3.45c.69,0,1.3.02,1.82.06.52.05.96.14,1.31.29.35.14.61.35.79.61.18.26.27.61.27,1.02v4.49Z" fill="#fff" stroke-width="0"/>
    </g>
  </g>
</svg>